# xmcd
#
# Track frame offsets:
#	150
#	16344
#	27599
#	48958
#	67076
#	142582
#	164138
#	181253
#	212335
#	229810
#
# Disc length: 3580 seconds
#
# Revision: 3
# Processed by: cddbd v1.5.2PL0 Copyright (c) Steve Scherf et al.
# Submitted via: EasyCDDAExtractor 10.0.2.1
#
DISCID=840dfa0a
DTITLE=Eric Clapton - Martin Scorsese Presents The Blues
DYEAR=1970
DGENRE=Blues
TTITLE0=John Mayall's Bluesbreakers - All Your Love
TTITLE1=John Mayall's Bluesbreakers - Steppin' Out
TTITLE2=Cream - Rollin' And Tumblin'
TTITLE3=Cream - I'm So Glad
TTITLE4=Cream - Spoonful (Live)
TTITLE5=Blind Faith - Sleeping In The Ground
TTITLE6=Howlin' Wolf - Rockin' Daddy
TTITLE7=Derek And The Dominos - Have You Ever Loved A Woman
TTITLE8=Eric Clapton And Duane Allman - Mean Old World
TTITLE9=Derek And The Dominos - Crossroads (Live)
EXTD=
EXTT0=
EXTT1=
EXTT2=
EXTT3=
EXTT4=
EXTT5=
EXTT6=
EXTT7=
EXTT8=
EXTT9=
PLAYORDER=
